<svg width="18" height="12" viewBox="0 0 18 12" fill="none" xmlns="http://www.w3.org/2000/svg">
<path d="M8.53072 7.73257C5.83434 5.24563 3.15876 2.77104 0.470703 0.292339C0.678757 0.0947013 0.911778 0.0123524 1.16144 0.0082349C2.11849 0 3.07554 0 4.03259 0C7.91488 0 11.7972 0 15.6836 0C15.9499 0 16.2038 0.0164698 16.4534 0.185285C13.807 2.70516 11.173 5.21269 8.53072 7.73257Z" fill="#426492"/>
<path d="M0.851562 11.8871C2.57425 10.2442 4.29694 8.60137 6.03211 6.94615C6.09869 6.99968 6.15278 7.04085 6.20272 7.08614C6.84352 7.67494 7.48017 8.26373 8.12098 8.84841C8.39977 9.10369 8.67856 9.10369 8.96568 8.83194C9.61481 8.22256 10.2556 7.60906 10.9006 6.99556C10.938 6.9585 10.9796 6.92145 11.0421 6.86792C12.8313 8.51902 14.6164 10.166 16.439 11.8541C16.2517 11.9077 16.1061 11.9571 15.9563 11.9859C15.8481 12.0065 15.7358 11.9983 15.6234 11.9983C10.8881 11.9983 6.15278 11.9983 1.41747 11.9983C1.23438 11.9983 1.05129 11.9777 0.868207 11.9653C0.868207 11.9365 0.859885 11.9118 0.851562 11.8871Z" fill="#426492"/>
<path d="M0.0124833 11.0511C-0.0124833 7.85185 0.0124833 4.65259 0 1.38745C1.76014 3.00561 3.47867 4.59083 5.21384 6.1884C3.49947 7.82302 1.79759 9.44118 0.099866 11.0635C0.0707384 11.0593 0.0416109 11.0552 0.0124833 11.0511Z" fill="#426492"/>
<path d="M11.8281 6.10168C13.555 4.45882 15.261 2.82831 17.0004 1.1731C17.0004 4.42176 17.0004 7.62926 17.0004 10.882C15.2652 9.28036 13.5591 7.70337 11.8281 6.10168Z" fill="#426492"/>
</svg>
