<svg width="49" height="40" viewBox="0 0 49 40" fill="none" xmlns="http://www.w3.org/2000/svg">
<path d="M1.72897 39.0574C2.56669 38.4258 3.32708 37.8586 4.07458 37.2915C7.09035 35.0229 10.1061 32.7543 13.1219 30.4857C13.2637 30.3825 13.3925 30.2665 13.5214 30.1634C13.8565 29.9314 14.0756 29.6478 13.805 29.2482C13.5214 28.8358 13.1606 28.9131 12.7997 29.1967C11.7944 29.9572 10.7763 30.7177 9.77104 31.4782C6.92281 33.6179 4.08746 35.7576 1.23923 37.8973C1.13613 37.9746 1.02014 38.0391 0.865484 38.1422C0.285528 37.4204 0.0277696 36.5954 0.0148817 35.7189C0.00199377 29.4029 -0.0108941 23.0612 0.0148817 16.7323C0.0148817 16.1651 0.246864 15.598 0.401519 14.889C1.57432 15.7655 2.60535 16.526 3.63639 17.2994C9.37151 21.6046 15.0937 25.9098 20.8289 30.215C23.1229 31.9422 25.984 31.9035 28.2781 30.1634C32.5053 26.9668 36.7583 23.8088 41.0113 20.6379C43.4085 18.8333 45.8185 17.0287 48.2157 15.2242C48.3188 15.1468 48.4219 15.0824 48.6925 14.9019C48.8085 15.7913 48.989 16.5647 48.989 17.3252C49.0147 21.0761 48.989 24.8399 48.9761 28.5909C48.9761 31.1044 49.0019 33.6179 48.9374 36.1185C48.9245 36.763 48.6152 37.4075 48.3961 38.1937C46.9656 37.1239 45.7025 36.2087 44.4524 35.2678C41.8104 33.2956 39.1684 31.2977 36.5135 29.3256C36.333 29.1838 36.1139 29.0033 35.9077 29.0033C35.7015 29.0033 35.3407 29.1709 35.3149 29.3256C35.2633 29.5576 35.3536 29.9314 35.5211 30.0861C36.0882 30.5759 36.7068 31.0012 37.3125 31.4524C40.5474 33.8628 43.7822 36.2603 47.0171 38.6707C47.1331 38.7609 47.2362 38.864 47.3909 38.9929C46.5532 39.6761 45.6381 39.9854 44.5942 39.9854C40.1736 39.9725 35.7531 39.9725 31.3325 39.9725C25.9067 39.9725 20.4809 39.9725 15.0551 39.9725C11.5109 39.9725 7.97961 39.9854 4.43544 39.9983C3.46884 40.0241 2.57958 39.7534 1.72897 39.0574Z" fill="white"/>
<path d="M46.7977 13.1747C44.7098 14.7344 42.6993 16.2425 40.547 17.8537C40.547 16.9385 40.547 16.178 40.547 15.4175C40.5599 13.1489 39.2067 11.8471 36.9255 11.86C33.1236 11.8986 29.3345 11.86 25.5326 11.86C21.5373 11.86 17.555 11.8729 13.5597 11.8857C12.7478 11.8857 11.923 11.8471 11.1239 11.976C9.46136 12.2595 8.4561 13.5872 8.48188 15.2629C8.49477 16.0749 8.48188 16.887 8.48188 17.8537C6.34249 16.2554 4.30619 14.7473 2.17969 13.1747C2.9143 12.6978 3.58447 12.2724 4.26753 11.8342C9.93821 8.22505 15.5702 4.61592 21.2151 1.03256C23.4834 -0.411093 25.7259 -0.307975 27.9684 1.13568C32.2601 3.89409 36.5775 6.62672 40.8821 9.37224C42.8411 10.6225 44.7743 11.8729 46.7977 13.1747Z" fill="white"/>
<path d="M24.4637 20.0965C22.9429 20.0965 21.4222 20.0965 19.9014 20.0965C19.7467 20.0965 19.605 20.0965 19.4503 20.0965C19.025 20.0836 18.7415 19.8774 18.7672 19.4263C18.7801 19.0138 19.0379 18.8076 19.4374 18.8076C22.7883 18.8076 26.1262 18.8076 29.4771 18.8076C29.9153 18.8076 30.1859 19.0396 30.1731 19.4778C30.1602 19.9161 29.838 20.0965 29.4256 20.0965C27.763 20.0965 26.1134 20.0965 24.4637 20.0965Z" fill="white"/>
<path d="M24.4246 23.4607C22.8394 23.4607 21.2542 23.4607 19.6561 23.4607C19.1921 23.4607 18.7539 23.3834 18.7539 22.8034C18.7539 22.2749 19.1405 22.1589 19.6045 22.1589C22.8265 22.1589 26.0485 22.1589 29.2576 22.1718C29.5153 22.1718 29.8246 22.2491 30.0051 22.4167C30.1339 22.5198 30.1855 22.9194 30.0824 23.0354C29.9148 23.2416 29.6184 23.4221 29.3607 23.435C27.9301 23.4736 26.4867 23.4479 25.0432 23.4479C24.8499 23.4479 24.6308 23.4479 24.4246 23.4607Z" fill="white"/>
<path d="M24.5017 15.4562C26.0869 15.4562 27.6722 15.4562 29.2574 15.4562C29.7342 15.4562 30.1595 15.5465 30.1595 16.1136C30.1595 16.6421 29.7471 16.7323 29.296 16.7323C26.0354 16.7323 22.7876 16.7323 19.527 16.7452C19.063 16.7452 18.7666 16.5776 18.7666 16.0878C18.7666 15.5851 19.1146 15.4562 19.5528 15.4562C21.2024 15.4562 22.8521 15.4562 24.5017 15.4562Z" fill="white"/>
</svg>
