<svg width="10" height="9" viewBox="0 0 10 9" fill="none" xmlns="http://www.w3.org/2000/svg">
<path d="M1.20273 8.99856C1.20273 7.68424 1.20273 6.36992 1.20273 5.0484C0.802792 5.0484 0.410122 5.0484 0 5.0484C0.0203607 5.02248 0.0290867 5.00809 0.0407213 4.99513C0.357766 4.67555 0.676265 4.35596 0.99331 4.03782C1.3089 3.71968 1.62449 3.40297 1.94008 3.08483C2.17714 2.84586 2.41419 2.60545 2.65125 2.36649C2.89849 2.11744 3.14572 1.86696 3.39296 1.61791C3.63293 1.37463 3.87435 1.13278 4.11431 0.889494C4.35864 0.643328 4.60297 0.397163 4.84584 0.150997C4.88365 0.112129 4.92001 0.0703816 4.95492 0.0286342C4.98837 -0.0116736 5.01309 -0.00735489 5.04799 0.0286342C5.17161 0.159635 5.29668 0.289195 5.42467 0.415877C5.62682 0.618856 5.83333 0.818955 6.03549 1.02193C6.28854 1.2753 6.54014 1.53154 6.79319 1.78634C7.00989 2.00516 7.22659 2.22397 7.44328 2.44278C7.71088 2.71342 7.97848 2.98262 8.24607 3.25326C8.48458 3.49367 8.72309 3.73551 8.96161 3.97592C9.20739 4.22353 9.45317 4.47113 9.6975 4.72017C9.79785 4.82238 9.89529 4.92891 10 5.0412C9.60006 5.0412 9.20448 5.0412 8.80163 5.0412C8.80163 6.3656 8.80163 7.67992 8.80163 9C7.89849 9 7.00262 9 6.09948 9C6.09948 8.96977 6.09948 8.94098 6.09948 8.91363C6.09948 8.4069 6.10093 7.90161 6.09948 7.39489C6.09802 7.19479 6.09802 6.99325 6.08348 6.79315C6.06457 6.54698 6.03258 6.30082 5.90896 6.07768C5.78243 5.84879 5.58464 5.71779 5.33013 5.66453C5.10762 5.61846 4.88802 5.6271 4.66987 5.68756C4.34846 5.77681 4.16812 6.00139 4.08813 6.31089C4.03432 6.51819 4.01542 6.72981 4.01396 6.9443C4.01105 7.61514 4.00524 8.28598 3.99942 8.95681C3.99942 8.96833 3.99796 8.98129 3.99796 8.99856C3.0701 8.99856 2.13933 8.99856 1.20273 8.99856Z" fill="#426492"/>
</svg>
