<svg width="205" height="65" viewBox="0 0 205 65" fill="none" xmlns="http://www.w3.org/2000/svg">
<mask id="path-1-inside-1" fill="white">
<path d="M61.3989 65H0L16.9669 42.5585H5.70133L20.311 22.8289H11.1011L28.0132 0L43.7741 16.5198L48.0775 13.0055L59.1513 23.5206L83.3545 6.25373L96.2099 15.2746L102.24 19.536L115.013 29.2486H112.108V65H54.8753"/>
</mask>
<path d="M0 65L-1.99419 63.4923L-5.02423 67.5H0V65ZM16.9669 42.5585L18.9611 44.0662L21.9912 40.0585H16.9669V42.5585ZM5.70133 42.5585L3.69219 41.0708L0.739303 45.0585H5.70133V42.5585ZM20.311 22.8289L22.3201 24.3166L25.273 20.3289H20.311V22.8289ZM11.1011 22.8289L9.09233 21.3407L6.1378 25.3289H11.1011V22.8289ZM28.0132 0L29.8221 -1.72573L27.7722 -3.87435L26.0044 -1.48817L28.0132 0ZM43.7741 16.5198L41.9653 18.2455L43.5629 19.92L45.3554 18.4562L43.7741 16.5198ZM48.0775 13.0055L49.799 11.1926L48.202 9.67621L46.4962 11.0692L48.0775 13.0055ZM59.1513 23.5206L57.4298 25.3335L58.9249 26.7532L60.6032 25.5558L59.1513 23.5206ZM83.3545 6.25373L84.7905 4.2073L83.3426 3.19125L81.9026 4.21855L83.3545 6.25373ZM96.2099 15.2746L97.6527 13.2329L97.6459 13.2282L96.2099 15.2746ZM102.24 19.536L103.753 17.5459L103.719 17.5195L103.683 17.4943L102.24 19.536ZM115.013 29.2486V31.7486H122.431L116.527 27.2586L115.013 29.2486ZM112.108 29.2486V26.7486H109.608V29.2486H112.108ZM112.108 65V67.5H114.608V65H112.108ZM61.3989 62.5H0V67.5H61.3989V62.5ZM1.99419 66.5077L18.9611 44.0662L14.9727 41.0508L-1.99419 63.4923L1.99419 66.5077ZM16.9669 40.0585H5.70133V45.0585H16.9669V40.0585ZM7.71046 44.0463L22.3201 24.3166L18.3018 21.3411L3.69219 41.0708L7.71046 44.0463ZM20.311 20.3289H11.1011V25.3289H20.311V20.3289ZM13.11 24.317L30.0221 1.48817L26.0044 -1.48817L9.09233 21.3407L13.11 24.317ZM26.2044 1.72573L41.9653 18.2455L45.583 14.7941L29.8221 -1.72573L26.2044 1.72573ZM45.3554 18.4562L49.6588 14.9419L46.4962 11.0692L42.1928 14.5834L45.3554 18.4562ZM46.3561 14.8184L57.4298 25.3335L60.8727 21.7077L49.799 11.1926L46.3561 14.8184ZM60.6032 25.5558L84.8064 8.2889L81.9026 4.21855L57.6993 21.4855L60.6032 25.5558ZM81.9185 8.30015L94.7739 17.321L97.6459 13.2282L84.7905 4.2073L81.9185 8.30015ZM94.7671 17.3162L100.797 21.5776L103.683 17.4943L97.6527 13.2329L94.7671 17.3162ZM100.727 21.526L113.5 31.2386L116.527 27.2586L103.753 17.5459L100.727 21.526ZM115.013 26.7486H112.108V31.7486H115.013V26.7486ZM109.608 29.2486V65H114.608V29.2486H109.608ZM112.108 62.5H54.8753V67.5H112.108V62.5Z" fill="#426492" mask="url(#path-1-inside-1)"/>
<path d="M142.889 34.4791C143.3 34.5622 143.601 34.7282 143.848 35.0049C144.095 35.2816 144.204 35.586 144.204 36.0011C144.204 37.2186 143.437 37.8274 141.902 37.8274H138.941L138.914 31.6013H141.683C142.34 31.6013 142.834 31.7397 143.19 31.9887C143.546 32.2378 143.711 32.6252 143.711 33.1232C143.738 33.815 143.464 34.2578 142.889 34.4791ZM140.175 32.6528V34.1748H141.6C142.231 34.1748 142.56 33.898 142.56 33.3723C142.56 33.1232 142.477 32.9572 142.313 32.8189C142.148 32.7082 141.929 32.6252 141.655 32.6252L140.175 32.6528ZM141.902 36.7482C142.587 36.7482 142.943 36.4715 142.943 35.9457C142.943 35.42 142.56 35.1709 141.792 35.1709H140.175V36.7205L141.902 36.7482Z" fill="#323232"/>
<path d="M148.015 37.9091C147.028 37.9091 146.26 37.6324 145.685 37.0513C145.109 36.4702 144.808 35.6677 144.808 34.6715C144.808 33.6754 145.082 32.9006 145.685 32.3195C146.26 31.7384 147.055 31.4617 148.015 31.4617C149.166 31.4617 150.07 31.8491 150.728 32.6515L149.769 33.4817C149.385 32.9283 148.81 32.6515 148.069 32.6515C147.466 32.6515 147 32.8452 146.644 33.205C146.288 33.5647 146.096 34.0628 146.123 34.6992C146.123 35.3357 146.315 35.8337 146.672 36.2211C147.028 36.5809 147.521 36.7746 148.097 36.7746C148.837 36.7746 149.413 36.4979 149.796 35.9444L150.756 36.7469C150.07 37.5217 149.166 37.9091 148.015 37.9091Z" fill="#323232"/>
<path d="M151.523 37.7717L151.495 31.5457H155.963V32.6802H152.674V34.1744H155.442V35.2259H152.674V36.6372H156.1V37.744L151.523 37.7717Z" fill="#323232"/>
<path d="M165.311 36.582V39.1831H164.187V37.7165L159.582 37.7442V39.2108H158.458V36.6097H159.088C159.417 36.3053 159.609 35.6135 159.582 34.5067V31.5181L164.269 31.4905L164.296 36.5543L165.311 36.582ZM160.377 36.6097H163.063V32.6803H160.815V34.5897C160.843 35.5582 160.678 36.2223 160.377 36.6097Z" fill="#323232"/>
<path d="M166.269 37.7707C166.022 37.7707 165.83 37.7707 165.721 37.7431V36.6362C165.803 36.6362 165.913 36.6362 166.05 36.6362C166.379 36.6362 166.625 36.4979 166.762 36.1935C166.899 35.8891 166.982 35.4187 166.982 34.7822V31.4893L171.696 31.4617L171.724 37.6877H170.49L170.463 32.6239H168.188V34.9483C168.188 35.5017 168.133 35.9444 168.051 36.3318C167.968 36.6916 167.831 36.9959 167.639 37.1896C167.448 37.3833 167.256 37.5217 167.036 37.6047C166.817 37.7154 166.57 37.7707 166.269 37.7707Z" fill="#323232"/>
<path d="M174.932 31.4905H177.645L177.673 37.7165H176.439V35.9456H175.288C175.178 35.9456 175.096 35.9456 175.041 35.9456L173.918 37.7442H172.492L173.835 35.6965C173.068 35.3645 172.684 34.7004 172.684 33.7319C172.684 33.0124 172.876 32.459 173.26 32.0716C173.589 31.6842 174.164 31.4905 174.932 31.4905ZM175.315 34.8664H176.439V32.5697H175.206C174.767 32.5697 174.466 32.6803 174.246 32.8464C174.055 33.0401 173.945 33.3168 173.945 33.7042C173.945 34.479 174.411 34.8664 175.315 34.8664Z" fill="#323232"/>
<path d="M180.77 37.7158C180.523 37.7158 180.331 37.7158 180.222 37.6881V36.5813C180.304 36.5813 180.414 36.5813 180.551 36.5813C180.88 36.5813 181.126 36.4429 181.263 36.1385C181.4 35.8342 181.483 35.3637 181.483 34.7273V31.4344L186.197 31.4067L186.225 37.6328H184.991L184.964 32.5689H182.689V34.8933C182.689 35.4468 182.634 35.8895 182.552 36.2769C182.469 36.6366 182.332 36.941 182.14 37.1347C181.949 37.3284 181.757 37.4668 181.537 37.5498C181.345 37.6605 181.071 37.7158 180.77 37.7158Z" fill="#323232"/>
<path d="M187.375 37.6605L187.348 31.4344L191.816 31.4067V32.5413H188.526V34.0355H191.295V35.087H188.526V36.4983H191.953V37.6051L187.375 37.6605Z" fill="#323232"/>
<path d="M195.681 37.7441C194.694 37.7441 193.926 37.4673 193.351 36.8862C192.775 36.3051 192.474 35.5027 192.474 34.5065C192.474 33.5103 192.748 32.7355 193.351 32.1544C193.926 31.5733 194.721 31.2966 195.681 31.2966C196.832 31.2966 197.736 31.684 198.394 32.4865L197.435 33.3166C197.051 32.7632 196.476 32.4865 195.735 32.4865C195.132 32.4865 194.666 32.6802 194.31 33.0399C193.954 33.3997 193.762 33.8977 193.789 34.5342C193.789 35.1706 193.981 35.6687 194.338 36.0561C194.694 36.4158 195.187 36.6095 195.763 36.6095C196.503 36.6095 197.079 36.3328 197.462 35.7794L198.422 36.5819C197.736 37.3567 196.832 37.7441 195.681 37.7441Z" fill="#323232"/>
<path d="M203.657 37.6048L203.109 36.4149H200.422L199.902 37.6048H198.559L201.354 31.3511H202.149L205 37.6048H203.657ZM201.738 33.0114L201.272 34.2842L200.806 35.3911H202.67L202.204 34.2842L201.738 33.0114Z" fill="#323232"/>
<path d="M130.034 35.7236C130.912 35.7236 131.624 35.005 131.624 34.1186C131.624 33.2322 130.912 32.5137 130.034 32.5137C129.156 32.5137 128.444 33.2322 128.444 34.1186C128.444 35.005 129.156 35.7236 130.034 35.7236Z" fill="#E55D2D"/>
<path d="M141.766 50.3622C140.779 50.3622 140.011 50.0855 139.436 49.5044C138.86 48.9233 138.559 48.1208 138.559 47.1247C138.559 46.1285 138.833 45.3537 139.436 44.7726C140.011 44.1915 140.806 43.9148 141.766 43.9148C142.917 43.9148 143.821 44.3022 144.479 45.1047L143.52 45.9348C143.136 45.3814 142.56 45.1047 141.82 45.1047C141.217 45.1047 140.751 45.2984 140.395 45.6581C140.039 46.0178 139.847 46.5159 139.847 47.1523C139.847 47.7888 140.039 48.2869 140.395 48.6743C140.751 49.034 141.245 49.2277 141.82 49.2277C142.56 49.2277 143.136 48.951 143.52 48.3976L144.479 49.2C143.794 49.9748 142.917 50.3622 141.766 50.3622Z" fill="#323232"/>
<path d="M149.715 50.2227L149.166 49.0329H146.48L145.959 50.2227H144.616L147.412 43.969H148.207L151.058 50.2227H149.715ZM147.823 45.6016L147.357 46.8745L146.891 47.9813H148.755L148.289 46.8745L147.823 45.6016Z" fill="#323232"/>
<path d="M158.157 49.0334V51.6345H157.033V50.1679L152.428 50.1956V51.6622H151.305V49.0611H151.935C152.264 48.7567 152.456 48.0649 152.428 46.9581V43.9696L157.116 43.9419L157.143 49.0058L158.157 49.0334ZM153.223 49.0611H155.91V45.1318H153.662V47.0411C153.689 48.0096 153.525 48.6737 153.223 49.0611Z" fill="#323232"/>
<path d="M163.556 50.1683L163.008 48.9784H160.322L159.801 50.1683H158.458L161.254 43.9146H162.049L164.899 50.1683H163.556ZM161.638 45.5748L161.172 46.8477L160.706 47.9546H162.57L162.104 46.8477L161.638 45.5748Z" fill="#323232"/>
<path d="M130.034 48.2309C130.912 48.2309 131.624 47.5123 131.624 46.6259C131.624 45.7396 130.912 45.021 130.034 45.021C129.156 45.021 128.444 45.7396 128.444 46.6259C128.444 47.5123 129.156 48.2309 130.034 48.2309Z" fill="#E55D2D"/>
<path d="M144.397 61.5954V64.1965H143.273V62.73L138.668 62.7576V64.2242H137.544V61.6231H138.174C138.503 61.3187 138.695 60.6269 138.668 59.5201V56.5316L143.355 56.5039L143.382 61.5678L144.397 61.5954ZM139.463 61.5954H142.149V57.6661H139.901V59.5754C139.901 60.5439 139.764 61.208 139.463 61.5954Z" fill="#323232"/>
<path d="M147.933 62.8413C146.974 62.8413 146.179 62.5369 145.548 61.9558C144.918 61.3747 144.616 60.5723 144.616 59.6314C144.616 58.6906 144.918 57.8881 145.521 57.2794C146.124 56.6706 146.919 56.3662 147.905 56.3662C148.892 56.3662 149.687 56.6706 150.29 57.2517C150.921 57.8328 151.222 58.6353 151.222 59.6038C151.222 60.5446 150.921 61.3194 150.318 61.9282C149.715 62.5369 148.92 62.8413 147.933 62.8413ZM147.933 61.6791C148.536 61.6791 149.029 61.4854 149.386 61.098C149.769 60.7106 149.961 60.2125 149.961 59.6038C149.961 58.995 149.769 58.4969 149.413 58.1095C149.029 57.7221 148.536 57.5284 147.933 57.5284C147.33 57.5284 146.864 57.7221 146.48 58.1095C146.096 58.4969 145.904 58.995 145.904 59.6038C145.904 60.2125 146.096 60.7106 146.48 61.098C146.836 61.4854 147.33 61.6791 147.933 61.6791Z" fill="#323232"/>
<path d="M157.964 56.449H158.622L158.65 62.7027H157.444V59.1884L155.662 61.6235H155.196L153.387 59.2161V62.7027H152.181L152.153 56.449H152.784L155.388 59.9909L157.964 56.449Z" fill="#323232"/>
<path d="M164.38 62.6744L163.831 61.4845H161.145L160.624 62.6744H159.281L162.077 56.4207H162.872L165.723 62.6744H164.38ZM162.488 58.0533L162.022 59.3261L161.556 60.433H163.42L162.954 59.3261L162.488 58.0533Z" fill="#323232"/>
<path d="M130.034 60.7384C130.912 60.7384 131.624 60.0199 131.624 59.1335C131.624 58.2471 130.912 57.5286 130.034 57.5286C129.156 57.5286 128.444 58.2471 128.444 59.1335C128.444 60.0199 129.156 60.7384 130.034 60.7384Z" fill="#E55D2D"/>
<path d="M25.8462 53.4335C25.3802 53.4335 25.0513 53.4058 24.832 53.3781V51.3581C24.9965 51.3581 25.1884 51.3858 25.4351 51.3858C26.0381 51.3858 26.4766 51.1091 26.7507 50.5833C26.9974 50.0576 27.1345 49.1998 27.1345 48.0099V41.9775H35.7961V53.3781H33.5485V44.0806H29.3821V48.3419C29.3821 49.3381 29.2999 50.1683 29.1354 50.86C28.971 51.5518 28.7243 52.0776 28.3954 52.4373C28.0664 52.797 27.7101 53.0738 27.299 53.2121C26.8878 53.3505 26.4218 53.4335 25.8462 53.4335Z" fill="#E55D2D"/>
<path d="M38.2637 53.3782V45.3535H44.431V47.2905H40.4291V48.5081H43.8005V50.3344H40.4291V51.4135H44.568V53.3505H38.2637V53.3782Z" fill="#E55D2D"/>
<path d="M51.9957 53.5995C50.2141 53.5995 48.7887 53.0738 47.7197 51.9946C46.6507 50.9154 46.1025 49.4765 46.1025 47.6225C46.1025 45.7962 46.6233 44.3573 47.6923 43.3058C48.7613 42.2543 50.1867 41.7285 51.9957 41.7285C54.1063 41.7285 55.7509 42.448 56.9296 43.9146L55.1753 45.4088C54.4627 44.385 53.4211 43.8869 52.0506 43.8869C50.9541 43.8869 50.077 44.2189 49.4192 44.883C48.7613 45.5472 48.4324 46.4603 48.4324 47.5948C48.4324 48.757 48.7613 49.6979 49.4192 50.3896C50.077 51.0814 50.9541 51.4135 52.0506 51.4135C53.4211 51.4135 54.4627 50.9154 55.1753 49.8916L56.9296 51.3858C55.7509 52.8801 54.1063 53.5995 51.9957 53.5995Z" fill="#E55D2D"/>
<path d="M64.5215 53.3782L64.0007 52.216H61.0678L60.547 53.3782H58.0801L61.7531 45.3535H63.288L66.961 53.3782H64.5215ZM62.082 49.6149L61.7531 50.4727H63.3977L63.0687 49.6149L62.5754 48.093L62.082 49.6149Z" fill="#E55D2D"/>
<path d="M80.5022 51.2751V56.0623H78.4464V53.3781H69.9767V56.0623H67.9209V51.2751H69.0995C69.73 50.7217 70.0315 49.4488 70.0315 47.4288V41.9775H78.6657V51.2751H80.5022ZM71.4842 51.2751H76.4181V44.0806H72.3065V47.5948C72.3065 49.3381 72.0324 50.5557 71.4842 51.2751Z" fill="#E55D2D"/>
<path d="M86.5047 53.5721C85.2164 53.5721 84.1748 53.1847 83.3525 52.4099C82.5576 51.6351 82.1465 50.6112 82.1465 49.3937C82.1465 48.1485 82.5576 47.1523 83.3525 46.3775C84.1474 45.6027 85.2164 45.2153 86.5047 45.2153C87.793 45.2153 88.8346 45.6027 89.6569 46.3775C90.4518 47.1523 90.8629 48.1762 90.8629 49.3937C90.8629 50.6112 90.4518 51.6351 89.6569 52.4099C88.862 53.1847 87.793 53.5721 86.5047 53.5721ZM86.5047 51.4967C87.1077 51.4967 87.5737 51.303 87.9574 50.9156C88.3138 50.5282 88.5057 50.0025 88.5057 49.3937C88.5057 48.7849 88.3138 48.2592 87.9574 47.8718C87.6011 47.4844 87.1077 47.2907 86.5047 47.2907C85.9017 47.2907 85.4357 47.4844 85.0794 47.8718C84.723 48.2592 84.5312 48.7849 84.5312 49.3937C84.5312 50.0025 84.723 50.5282 85.0794 50.9156C85.4083 51.303 85.9017 51.4967 86.5047 51.4967Z" fill="#E55D2D"/>
<path d="M99.7728 45.3535H100.951V53.3782H98.7312V49.9746L97.0317 52.0777H96.2917L94.5922 50.0023V53.3782H92.3994V45.3535H93.5781L96.7028 49.1722L99.7728 45.3535Z" fill="#E55D2D"/>
</svg>
