<svg width="22" height="15" viewBox="0 0 22 15" fill="none" xmlns="http://www.w3.org/2000/svg">
<path d="M11.0089 0.00893059C13.8797 0.00893059 16.7459 0.0266744 19.6167 5.86793e-05C20.9045 -0.00881323 22 0.989277 22 2.35999C21.9955 5.33208 22 8.30417 21.9955 11.2763C21.9955 11.8574 22.0134 12.4474 21.9508 13.024C21.8211 14.1774 20.8419 14.998 19.648 14.998C17.5598 15.0025 15.476 14.998 13.3878 14.998C9.71667 14.998 6.04106 14.998 2.36992 14.998C1.23415 14.998 0.321951 14.2927 0.0670732 13.2192C0.0178862 13.0152 0 12.7934 0 12.5849C0 9.18249 0 5.78011 0 2.38217C0 1.25543 0.670732 0.359371 1.72154 0.0843419C1.90041 0.0355463 2.08821 0.0133665 2.27154 0.00893059C5.18252 0.00449464 8.0935 0.00893059 11.0089 0.00893059ZM7.78496 14.0753C7.89228 14.0753 7.97276 14.0753 8.05325 14.0753C9.39472 14.0753 10.7362 14.0753 12.0776 14.0753C14.5951 14.0753 17.1171 14.062 19.6346 14.0842C20.4663 14.0931 21.0789 13.4277 21.0699 12.6958C21.052 11.0855 21.0654 9.47083 21.0654 7.86057C21.0654 7.82065 21.052 7.77629 21.0431 7.71862C17.8325 7.71862 14.6354 7.71862 11.4382 7.71862C11.6126 7.47908 11.8004 7.26616 11.939 7.02661C12.0329 6.86248 12.1268 6.80925 12.3191 6.80925C15.1362 6.81812 17.9533 6.81369 20.7703 6.81369C20.8642 6.81369 20.9581 6.81369 21.061 6.81369C21.0654 6.73828 21.0699 6.69835 21.0699 6.65399C21.0699 5.20344 21.0699 3.75731 21.0699 2.30676C21.0699 2.20473 21.0654 2.09827 21.0431 2.00067C20.8776 1.29092 20.35 0.90943 19.5272 0.90943C15.7041 0.904994 11.8809 0.904994 8.06219 0.904994C7.98171 0.904994 7.90122 0.904994 7.79837 0.904994C7.79837 1.29979 7.78049 1.66798 7.80285 2.03173C7.8252 2.41322 7.80732 2.74148 7.31992 2.81689C6.94431 2.73261 6.82358 2.46645 6.88618 2.08052C6.90854 1.93857 6.88618 1.78331 6.88618 1.63693C6.88618 1.39739 6.88618 1.15784 6.88618 0.904994C6.7878 0.904994 6.72073 0.904994 6.65366 0.904994C5.41057 0.904994 4.16301 0.904994 2.91992 0.904994C2.65163 0.904994 2.38333 0.90943 2.11951 0.940482C1.43984 1.01589 0.943496 1.55264 0.939024 2.21804C0.930081 3.70408 0.934553 5.19013 0.934553 6.67617C0.934553 6.7161 0.947967 6.76046 0.961382 6.80925C1.45325 6.80925 1.94065 6.80482 2.42358 6.81369C2.49512 6.81369 2.60244 6.83143 2.63821 6.88023C2.8439 7.15526 3.03171 7.43916 3.23293 7.73193C2.47276 7.73193 1.71707 7.73193 0.947967 7.73193C0.943496 7.80291 0.939024 7.86057 0.939024 7.91824C0.939024 9.49301 0.939024 11.0678 0.943496 12.6425C0.943496 12.7667 0.947967 12.8954 0.970325 13.0152C1.06423 13.5386 1.5874 14.0842 2.32073 14.0798C3.79634 14.0665 5.27195 14.0753 6.74756 14.0753C6.79228 14.0753 6.83252 14.0709 6.89512 14.0665C6.89512 13.9644 6.89512 13.8802 6.89512 13.7914C6.89512 12.474 6.89512 11.1609 6.89959 9.84345C6.89959 9.75916 6.91748 9.66601 6.96219 9.59947C7.06504 9.45752 7.18577 9.32888 7.29309 9.20467C7.67764 9.45752 7.82967 9.73255 7.81626 10.154C7.78049 11.263 7.80285 12.3719 7.79837 13.4809C7.78496 13.6717 7.78496 13.8624 7.78496 14.0753Z" fill="#426492"/>
<path d="M7.35536 7.86049C6.51471 8.73437 5.7456 9.53727 4.98097 10.3357C4.73504 10.0785 4.52934 9.86997 4.33707 9.67035C4.94073 9.05819 5.58016 8.41054 6.25089 7.72741C5.99601 7.72741 5.7769 7.72741 5.5578 7.72741C4.16715 7.72741 3.1074 6.62286 3.22813 5.25215C3.33097 4.02339 4.3639 3.23379 5.36552 3.19387C6.17934 3.16282 6.81877 3.48221 7.34194 4.09437C7.73544 3.60641 8.23625 3.29146 8.85779 3.20718C9.36308 3.14064 9.85047 3.22492 10.3021 3.47334C11.1696 3.95685 11.6659 4.97712 11.3932 5.96634C10.9952 7.4302 9.88177 7.83831 8.48666 7.7141C9.13503 8.36618 9.76552 9.00053 10.4094 9.64817C10.1769 9.86554 9.95779 10.0652 9.71633 10.2914C8.96064 9.51953 8.18259 8.71662 7.35536 7.86049ZM7.8204 6.8003C7.86958 6.80473 7.91877 6.80917 7.97243 6.80917C8.39722 6.80917 8.82202 6.81804 9.24682 6.8003C9.67161 6.78699 10.0114 6.59624 10.2708 6.25911C10.6017 5.82439 10.633 5.21666 10.3423 4.74645C10.0383 4.2585 9.45698 4.00121 8.92934 4.11211C8.31674 4.24519 7.86958 4.6666 7.82487 5.23441C7.7891 5.74898 7.8204 6.26355 7.8204 6.8003ZM6.86796 6.79142C6.86796 6.29903 6.91715 5.79777 6.85902 5.31425C6.75617 4.45368 6.01837 3.96129 5.17772 4.13429C4.58748 4.2585 4.12244 4.83961 4.12691 5.45177C4.13585 6.09498 4.60536 6.72045 5.20902 6.77812C5.75455 6.83135 6.30902 6.79142 6.86796 6.79142Z" fill="#426492"/>
<path d="M15.5694 12.2569C15.3145 12.2569 15.1133 12.0617 15.1133 11.8133C15.1133 11.5782 15.3279 11.3652 15.5694 11.3652C15.8287 11.3652 16.0478 11.5782 16.0389 11.8266C16.0344 12.0661 15.8243 12.2569 15.5694 12.2569Z" fill="#426492"/>
<path d="M14.2058 12.2567C13.9554 12.2567 13.7407 12.0571 13.7452 11.8176C13.7452 11.5603 13.9509 11.3562 14.2147 11.3607C14.4651 11.3651 14.6663 11.5647 14.6663 11.8131C14.6663 12.0571 14.4606 12.2567 14.2058 12.2567Z" fill="#426492"/>
<path d="M17.4033 11.8045C17.4078 12.0618 17.2245 12.2525 16.9651 12.2569C16.6968 12.2614 16.509 12.0884 16.5001 11.8311C16.4956 11.5649 16.6879 11.3653 16.9517 11.3653C17.2066 11.3609 17.3989 11.5472 17.4033 11.8045Z" fill="#426492"/>
<path d="M18.7801 11.8042C18.7846 12.0615 18.6013 12.2522 18.3374 12.2567C18.0736 12.2611 17.8813 12.0881 17.8724 11.8308C17.8634 11.5735 18.0468 11.3739 18.2972 11.365C18.561 11.3562 18.7756 11.5513 18.7801 11.8042Z" fill="#426492"/>
</svg>
