<svg width="22" height="22" viewBox="0 0 22 22" fill="none" xmlns="http://www.w3.org/2000/svg">
<path d="M18.727 22.0003C18.5251 21.9316 18.3104 21.8929 18.13 21.7855C17.8208 21.6008 17.4945 21.4161 17.2411 21.1669C15.4889 19.4356 13.7582 17.6872 12.019 15.9473C11.5895 15.5177 11.349 15.0151 11.3705 14.3965C11.3748 14.3063 11.319 14.1946 11.2546 14.1216C11.0914 13.9411 10.9153 13.7736 10.7349 13.6103C10.6834 13.5631 10.5803 13.5201 10.5202 13.5373C9.93185 13.692 9.48522 13.4815 9.10301 13.0347C8.5662 12.4118 8.5662 11.7373 9.13307 11.1488C9.17601 11.1015 9.23184 11.0714 9.3435 10.9855C9.24473 10.9211 9.17601 10.8953 9.12448 10.8438C7.25208 8.97503 5.37538 7.10201 3.51157 5.22468C3.36985 5.08292 3.24102 5.03137 3.04777 5.07003C2.85451 5.11299 2.65267 5.13017 2.45513 5.16454C2.13733 5.21609 2.0085 5.15595 1.84531 4.86812C1.41156 4.11633 0.977818 3.36455 0.544074 2.60846C0.398061 2.3593 0.252048 2.10584 0.106035 1.85238C-0.0571555 1.56885 -0.035683 1.39701 0.19622 1.16503C0.501129 0.855722 0.810333 0.542118 1.11954 0.237107C1.20972 0.151189 1.32138 0.0824537 1.42015 0.00512695C1.50604 0.00512695 1.59193 0.00512695 1.67782 0.00512695C2.71709 0.606557 3.75636 1.20799 4.79563 1.80942C5.16495 2.02421 5.2036 2.09725 5.15636 2.50966C5.14348 2.62994 5.15207 2.75882 5.10483 2.87051C4.95882 3.22708 5.13489 3.43328 5.37538 3.66956C7.20055 5.47814 9.01282 7.29962 10.8294 9.1168C10.8809 9.16835 10.9239 9.2242 10.9797 9.28434C11.1042 9.17265 11.2159 9.07384 11.3276 8.97933C11.7355 8.63136 12.3625 8.59699 12.7963 8.91919C12.9938 9.06954 13.1785 9.24138 13.346 9.42611C13.5951 9.70105 13.6294 10.0447 13.5521 10.3927C13.5135 10.5688 13.5263 10.7063 13.6809 10.8223C13.7454 10.8695 13.7969 10.9297 13.8441 10.9898C14.0674 11.2734 14.3294 11.4108 14.7159 11.4065C15.1711 11.4022 15.5576 11.6428 15.884 11.965C17.6791 13.7607 19.4828 15.5478 21.2736 17.3521C22.2098 18.2972 22.2313 19.9769 21.3724 21.0208C20.9601 21.5235 20.4448 21.8328 19.8178 21.9659C19.8006 21.9702 19.7834 21.9874 19.7662 22.0003C19.4141 22.0003 19.0705 22.0003 18.727 22.0003ZM21.0932 19.2595C21.1061 18.6752 20.8656 18.2113 20.4662 17.8075C18.7527 16.0891 17.0435 14.3707 15.33 12.6524C14.9994 12.3173 14.6086 12.1712 14.1319 12.2099C13.9859 12.2228 13.7969 12.1583 13.6895 12.0638C13.3589 11.7717 13.0497 11.4495 12.7447 11.1273C12.5429 10.9211 12.53 10.745 12.6803 10.4872C12.792 10.3025 12.7834 10.1392 12.6417 9.98028C12.5944 9.92873 12.5472 9.87288 12.4957 9.82133C12.1736 9.49055 12.0061 9.49055 11.6754 9.82133C11.0871 10.4099 10.503 10.9941 9.91467 11.5827C9.45086 12.0466 9.45516 12.197 9.95332 12.6266C10.1251 12.7726 10.2926 12.8027 10.4944 12.6781C10.7392 12.5278 10.9196 12.5492 11.13 12.7555C11.4478 13.0648 11.7656 13.3741 12.0662 13.7006C12.1521 13.7951 12.238 13.9626 12.2165 14.0786C12.1135 14.6156 12.3196 15.0194 12.6889 15.3803C13.7282 16.407 14.7546 17.4423 15.7895 18.469C16.5325 19.2036 17.2626 19.9511 18.027 20.66C18.5896 21.1841 19.2724 21.2829 19.9724 20.9736C20.711 20.66 21.0589 20.0499 21.0932 19.2595ZM10.3785 9.89007C9.66129 9.17265 8.957 8.47241 8.2527 7.76788C6.93858 6.45332 5.62017 5.13877 4.30605 3.82421C4.16863 3.68674 4.10851 3.53638 4.15145 3.33877C4.1944 3.13686 4.23305 2.93066 4.24593 2.72875C4.25023 2.63853 4.22016 2.49677 4.16004 2.4624C3.31832 1.96837 2.4723 1.48293 1.62629 0.997487C1.41156 1.21228 1.20972 1.41849 0.994996 1.63329C1.39438 2.32493 1.78948 3.01658 2.18887 3.70392C2.29623 3.88865 2.36924 4.1507 2.52813 4.22803C2.68703 4.30536 2.9447 4.21514 3.15083 4.16789C3.48581 4.09485 3.722 4.18936 3.96679 4.43853C5.71465 6.20845 7.47969 7.96549 9.23614 9.72682C9.45086 9.94162 9.657 10.1736 9.85884 10.3884C10.0521 10.208 10.2024 10.0576 10.3785 9.89007Z" fill="#426492"/>
<path d="M17.6954 0.00429593C17.777 0.0300715 17.8543 0.0730308 17.9359 0.0816227C18.331 0.120286 18.4298 0.648686 18.1592 0.906442C17.4292 1.60238 16.7249 2.32839 16.012 3.04152C15.7071 3.34653 15.7071 3.57421 16.012 3.87923C16.7034 4.57517 17.3948 5.26681 18.0905 5.96275C18.3525 6.22481 18.6188 6.22481 18.8893 5.95846C19.6022 5.25392 20.3108 4.5451 21.0194 3.83627C21.3715 3.484 21.7494 3.58281 21.8783 4.05966C22.1145 4.91884 21.9771 5.76514 21.7151 6.58566C21.3801 7.64246 20.8863 8.61764 20.1433 9.45105C19.2329 10.4692 18.1077 10.83 16.785 10.4692C16.3985 10.3618 16.0292 10.1814 15.6598 10.0224C15.5353 9.97086 15.4537 9.96656 15.3635 10.074C15.2605 10.1942 15.1488 10.3016 15.0286 10.409C14.8267 10.5895 14.5605 10.6024 14.3887 10.4434C14.2126 10.2845 14.1997 10.0138 14.3844 9.80761C14.6034 9.56274 14.8396 9.33076 15.0801 9.10738C15.2648 8.93554 15.4709 8.96991 15.6942 9.07301C16.1408 9.27492 16.5832 9.5026 17.0513 9.62718C18.0175 9.88494 18.8507 9.63577 19.5077 8.84103C20.2421 7.95177 20.7488 6.95082 20.9807 5.82099C21.028 5.58901 21.0366 5.34843 21.0666 5.11216C21.0494 5.10357 21.028 5.09497 21.0108 5.08638C20.7961 5.30118 20.5856 5.52027 20.3709 5.73507C20.0746 6.03578 19.774 6.3322 19.4734 6.63292C18.8979 7.20428 18.1077 7.20857 17.528 6.63292C16.7893 5.90261 16.0549 5.16801 15.3249 4.42911C14.7494 3.84915 14.7623 3.04582 15.3421 2.46586C15.823 1.98472 16.304 1.50358 16.785 1.02673C16.8151 0.996656 16.8365 0.966585 16.8623 0.936513C16.8537 0.915034 16.8451 0.889258 16.8408 0.867778C16.4329 0.945105 16.0163 0.988064 15.6212 1.10405C14.6549 1.39188 13.7703 1.85584 13.0187 2.5346C12.3273 3.15751 12.0696 3.93078 12.2801 4.8544C12.3917 5.33984 12.6022 5.78232 12.847 6.20762C13.0488 6.55989 13.0273 6.69306 12.7396 6.98089C12.4003 7.32027 12.0611 7.65965 11.7218 7.99903C11.6574 8.06346 11.5887 8.1322 11.5114 8.18375C11.3396 8.29974 11.1034 8.26967 10.9617 8.11931C10.8242 7.97325 10.8071 7.70261 10.9445 7.55225C11.2279 7.24724 11.5071 6.94223 11.812 6.65869C11.958 6.52122 11.9838 6.41383 11.885 6.2291C11.5457 5.5933 11.3138 4.92743 11.3353 4.18853C11.3568 3.29498 11.7132 2.54319 12.3531 1.95035C13.4568 0.932217 14.7709 0.305011 16.2482 0.0343675C16.274 0.0300715 16.2997 0.00859186 16.3212 0C16.7764 0.00429593 17.2359 0.00429593 17.6954 0.00429593Z" fill="#426492"/>
<path d="M4.1685 21.9994C3.75623 21.9006 3.32249 21.849 2.93598 21.6901C1.30408 21.0285 0.316342 19.8214 0.0973228 18.0643C-0.121696 16.2858 0.548245 14.851 1.99549 13.8199C2.94457 13.1412 4.03108 12.8748 5.20348 13.0939C5.36667 13.124 5.47832 13.0896 5.59857 12.9651C6.18262 12.3679 6.77956 11.7794 7.3722 11.1865C7.42803 11.1307 7.48385 11.0748 7.54398 11.0276C7.75441 10.8558 7.94766 10.86 8.11085 11.0405C8.28693 11.2338 8.3041 11.4787 8.13232 11.6548C7.39367 12.4023 6.65502 13.1498 5.89919 13.8844C5.80041 13.9789 5.59428 14.0304 5.45685 14.0047C4.68384 13.8586 3.92372 13.8457 3.19365 14.1679C1.8323 14.7608 1.06358 15.7961 0.951927 17.2868C0.831681 18.8634 1.73782 20.2424 3.09059 20.8137C5.18201 21.6987 7.56974 20.5731 8.06791 18.2533C8.18386 17.7164 8.19674 17.1622 8.00778 16.6252C7.93478 16.4147 7.97772 16.23 8.14521 16.0624C8.67343 15.5383 9.18877 15.0013 9.7127 14.4772C9.91883 14.271 10.2023 14.2581 10.3826 14.4343C10.5544 14.6018 10.5544 14.881 10.3526 15.0872C9.91454 15.5383 9.46791 15.9851 9.01699 16.4233C8.90533 16.5307 8.88386 16.6295 8.91392 16.7798C9.21454 18.1889 8.81085 19.4175 7.89183 20.4829C7.1403 21.355 6.16974 21.8405 5.02311 21.9693C4.99734 21.9736 4.97157 21.9908 4.94581 21.9994C4.68384 21.9994 4.42617 21.9994 4.1685 21.9994Z" fill="#426492"/>
<path d="M5.1046 14.937C5.19478 14.9929 5.34509 15.053 5.45245 15.1561C5.92914 15.6158 6.39295 16.0883 6.86104 16.5609C7.01135 16.7112 7.07148 16.8788 7.01135 17.1022C6.83957 17.7466 6.68497 18.3952 6.52178 19.0439C6.47025 19.2458 6.35 19.3833 6.14386 19.4392C5.45245 19.6282 4.76104 19.8172 4.06962 20.0062C3.89355 20.0535 3.74324 19.989 3.623 19.8687C3.12484 19.3747 2.63097 18.8807 2.1371 18.3824C1.99109 18.2363 1.95244 18.0645 2.01256 17.854C2.20152 17.2139 2.3733 16.5695 2.54937 15.9251C2.6095 15.7103 2.73404 15.5814 2.94876 15.5256C3.61441 15.3451 4.27576 15.1561 4.93711 14.9714C4.97147 14.9628 5.00582 14.9585 5.1046 14.937ZM6.10092 17.1022C6.08374 17.0764 6.06227 17.042 6.03221 17.0119C5.68435 16.664 5.3365 16.3117 4.98435 15.968C4.95 15.9337 4.8684 15.9165 4.82116 15.9294C4.36594 16.0454 3.91502 16.1614 3.4641 16.2902C3.40398 16.3074 3.33097 16.3804 3.31379 16.4406C3.18496 16.8831 3.06901 17.3298 2.95735 17.7766C2.94447 17.8368 2.96164 17.9313 3.00459 17.9742C3.33527 18.3179 3.67453 18.6573 4.02238 18.9924C4.06533 19.0353 4.15981 19.0568 4.21993 19.0396C4.65368 18.9322 5.08312 18.8034 5.51687 18.7045C5.67147 18.6702 5.723 18.5971 5.75736 18.4597C5.83896 18.1074 5.92914 17.7551 6.01932 17.4029C6.0408 17.3084 6.07086 17.2139 6.10092 17.1022Z" fill="#426492"/>
<path d="M19.1817 18.6143C18.9928 18.8033 18.7909 19.0009 18.5977 19.1942C16.8498 17.4458 15.0977 15.693 13.3369 13.936C13.5302 13.747 13.7363 13.5494 13.9296 13.3604C15.6774 15.1045 17.4253 16.8615 19.1817 18.6143Z" fill="#426492"/>
</svg>
