<svg width="22" height="20" viewBox="0 0 22 20" fill="none" xmlns="http://www.w3.org/2000/svg">
<path d="M15.0741 6.49953C16.6916 6.49953 18.2173 6.4757 19.7431 6.50748C20.9103 6.53132 21.9108 7.51655 21.9942 8.6289C22.0525 9.51879 21.669 10.1862 20.9853 10.7344C21.5106 12.0931 21.3689 12.7128 20.3267 13.5789C20.8353 14.6356 20.5935 15.5414 19.6764 16.2485C19.7431 16.6617 19.8848 17.051 19.8598 17.4324C19.7764 18.5448 18.9093 19.2757 17.7087 19.2837C16.1079 19.2996 14.5155 19.2916 12.9147 19.2916C11.0138 19.2916 9.10449 19.2837 7.20355 19.2996C7.04514 19.2996 6.8367 19.3631 6.74499 19.4744C6.4115 19.8558 5.97795 19.9908 5.49438 19.9908C4.17706 19.9988 2.85141 20.0067 1.53409 19.9908C0.575284 19.9749 0 19.4108 0 18.513C0 15.0011 0 11.4972 0 7.98532C0 6.99215 0.533596 6.49159 1.56744 6.49159C2.83473 6.49159 4.09369 6.49159 5.36098 6.49159C5.46936 6.49159 5.59443 6.45981 5.69448 6.49953C6.31145 6.7379 6.68663 6.36446 7.04514 5.99897C7.57874 5.45074 8.21238 5.08525 8.95442 4.831C10.13 4.43373 11.1222 3.76632 11.8642 2.79698C12.0059 2.61423 12.1226 2.37587 12.156 2.1534C12.3061 0.937753 13.3816 -0.015695 14.6239 0.00019577C15.8828 0.0160866 16.9667 1.07283 17.0084 2.32025C17.0417 3.40877 16.6082 4.36222 16.0162 5.26005C15.7411 5.67321 15.4243 6.0387 15.0741 6.49953ZM7.04514 18.0283C7.20355 18.0283 7.31194 18.0283 7.42033 18.0283C10.4218 18.0283 13.4233 18.0283 16.4248 18.0283C16.8667 18.0283 17.3169 18.0442 17.7588 18.0204C18.4258 17.9886 18.7926 17.3688 18.4091 16.908C18.2757 16.7412 18.0089 16.6538 17.7754 16.5902C17.3669 16.479 17.1251 16.2485 17.1418 15.9148C17.1585 15.5732 17.4586 15.3269 17.8838 15.311C18.1339 15.303 18.3841 15.3189 18.6342 15.2871C19.001 15.2395 19.2512 14.9455 19.2512 14.5959C19.2512 14.2304 19.0511 14 18.6926 13.8967C18.5758 13.8649 18.4424 13.857 18.3257 13.8172C18.0005 13.706 17.8004 13.4915 17.8505 13.1578C17.9005 12.8161 18.1339 12.6175 18.5091 12.6095C18.7593 12.6016 19.0094 12.6254 19.2595 12.5937C19.6597 12.546 19.9849 12.2202 19.9682 11.8786C19.9515 11.5131 19.7431 11.2668 19.3512 11.1714C19.2428 11.1476 19.1344 11.1317 19.026 11.0999C18.7009 10.9887 18.5341 10.7662 18.5758 10.4325C18.6175 10.1067 18.8176 9.93989 19.1511 9.90811C19.3345 9.89222 19.5096 9.89222 19.693 9.86838C20.285 9.79688 20.6935 9.34399 20.6769 8.77986C20.6602 8.16807 20.2016 7.76285 19.4929 7.75491C17.5336 7.74696 15.5743 7.75491 13.615 7.75491C13.2649 7.75491 12.9314 7.69134 12.7896 7.34175C12.6396 6.9842 12.8563 6.75379 13.1065 6.50748C13.6651 5.95925 14.257 5.41896 14.7239 4.80716C15.2909 4.06824 15.7494 3.24987 15.6661 2.28053C15.616 1.72435 15.1241 1.27941 14.5739 1.27146C14.0403 1.26351 13.5984 1.68462 13.465 2.22491C13.3649 2.63807 13.2399 3.08301 12.9981 3.43261C12.1226 4.71182 10.8303 5.48252 9.37963 6.05459C8.9294 6.22939 8.51253 6.50748 8.11233 6.77762C7.79551 6.99215 7.52038 7.26229 7.25358 7.52449C7.15353 7.62778 7.07015 7.78669 7.06182 7.92176C7.0368 8.30314 7.07015 8.69246 7.04514 9.07384C7.02013 9.51879 6.73666 9.76509 6.3448 9.7492C5.95294 9.73331 5.7445 9.5029 5.73616 9.05001C5.72782 8.6289 5.73616 8.2078 5.73616 7.7708C4.2521 7.7708 2.81806 7.7708 1.359 7.7708C1.359 11.4177 1.359 15.0329 1.359 18.6639C2.82639 18.6639 4.26043 18.6639 5.73616 18.6639C5.73616 18.4335 5.73616 18.2349 5.73616 18.0442C5.73616 16.034 5.73616 14.0159 5.73616 12.0057C5.73616 11.5369 5.98629 11.2429 6.37815 11.2429C6.76167 11.2429 7.0368 11.5449 7.05348 11.9978C7.06182 12.1805 7.05348 12.3712 7.05348 12.5539C7.04514 14.3655 7.04514 16.1611 7.04514 18.0283Z" fill="#426492"/>
<path d="M3.54368 17.2498C3.18517 17.2577 2.88502 16.9876 2.86834 16.638C2.86001 16.2964 3.14348 15.9944 3.50199 15.9865C3.85216 15.9785 4.16899 16.2646 4.17732 16.6062C4.18566 16.9558 3.91052 17.2339 3.54368 17.2498Z" fill="#426492"/>
</svg>
