<svg width="27" height="17" viewBox="0 0 27 17" fill="none" xmlns="http://www.w3.org/2000/svg">
<path d="M1.79742 12.5078C1.59133 12.5078 1.40888 12.5078 1.22306 12.5078C0.962905 12.5078 0.70613 12.5111 0.445977 12.5078C0.175688 12.5011 0 12.3332 0 12.0847C0 11.8362 0.175688 11.6683 0.449356 11.6616C0.814246 11.6549 1.18251 11.6616 1.5474 11.6616C2.47652 11.6616 3.40564 11.6616 4.33476 11.6616C4.38544 11.6616 4.43612 11.6583 4.4868 11.665C4.74019 11.6851 4.9125 11.8664 4.90237 12.1048C4.89223 12.3332 4.71654 12.5044 4.46991 12.5078C3.93946 12.5111 3.4124 12.5078 2.88196 12.5078C2.81101 12.5078 2.74006 12.5078 2.64883 12.5078C2.64883 12.8133 2.64545 13.0988 2.65559 13.3808C2.65559 13.411 2.75019 13.458 2.80087 13.458C3.2232 13.4647 3.64552 13.4614 4.06785 13.4614C4.36517 13.4614 4.66586 13.458 4.96318 13.4648C5.06116 13.4648 5.10846 13.4379 5.15239 13.3439C5.62877 12.2727 6.45991 11.675 7.63904 11.675C8.81818 11.675 9.64932 12.2727 10.1223 13.3472C10.1764 13.4681 10.2507 13.4648 10.3487 13.4648C12.2137 13.4648 14.0753 13.4648 15.9403 13.4648C16.8627 13.4648 17.7884 13.4648 18.7108 13.4648C18.7783 13.4648 18.8425 13.4648 18.927 13.4648C18.9304 13.3875 18.9371 13.3204 18.9371 13.2566C18.9371 12.2929 18.9371 11.3326 18.9371 10.3689C18.9371 10.07 19.0959 9.88198 19.3493 9.87527C19.5723 9.86855 19.7514 10.0197 19.7784 10.2413C19.7852 10.3017 19.7852 10.3655 19.7852 10.4259C19.7852 11.3661 19.7852 12.3063 19.7852 13.2465C19.7852 13.3136 19.7852 13.3774 19.7852 13.4379C19.9203 13.4883 19.9845 13.4614 20.0386 13.3405C20.5149 12.2694 21.3495 11.675 22.5286 11.675C23.701 11.6784 24.522 12.2727 25.0085 13.3338C25.0321 13.3842 25.093 13.4547 25.1369 13.458C25.468 13.4681 25.7991 13.4648 26.1437 13.4648C26.1437 12.8503 26.1437 12.2492 26.1437 11.618C26.0255 11.618 25.9038 11.618 25.7822 11.618C24.9004 11.6146 24.353 11.0673 24.353 10.1875C24.353 9.93571 24.3497 9.68388 24.353 9.43204C24.3564 9.13991 24.522 8.97538 24.8193 8.97538C25.2315 8.97202 25.6403 8.97538 26.0626 8.97538C26.0559 8.93509 26.0592 8.90151 26.0491 8.87465C25.816 8.36762 25.4241 8.04527 24.8632 8.03856C23.1976 8.01841 21.5285 8.03184 19.8629 8.03184C19.846 8.03184 19.8291 8.03856 19.7852 8.04527C19.7852 8.17287 19.7852 8.30382 19.7852 8.43478C19.7818 8.73698 19.6264 8.9183 19.3662 8.9183C19.1027 8.92166 18.9371 8.73362 18.9371 8.42806C18.9371 6.60814 18.9371 4.79157 18.9371 2.97165C18.9371 2.33367 18.9371 1.69569 18.9371 1.0577C18.9371 0.997265 18.9371 0.936824 18.9371 0.856237C18.8662 0.852879 18.8054 0.846164 18.7445 0.846164C13.4469 0.846164 8.14584 0.846164 2.84817 0.842806C2.68262 0.842806 2.64545 0.889815 2.64545 1.05099C2.64883 3.47867 2.64883 5.90972 2.64883 8.3374C2.64883 8.40456 2.65221 8.47171 2.64545 8.53887C2.62518 8.75712 2.46301 8.91158 2.24678 8.92166C2.03055 8.93173 1.8481 8.7907 1.81094 8.57916C1.8008 8.51536 1.8008 8.44485 1.8008 8.37769C1.8008 5.91643 1.8008 3.45181 1.8008 0.990549C1.79742 0.339137 2.13866 0 2.78736 0C8.12556 0 13.4638 0 18.802 0C19.4405 0 19.7818 0.339137 19.7852 0.970402C19.7852 1.23903 19.7852 1.50429 19.7852 1.7897C19.873 1.7897 19.9406 1.7897 20.0081 1.7897C20.9643 1.7897 21.9238 1.7897 22.88 1.7897C23.9882 1.7897 24.745 2.54521 24.745 3.64656C24.745 3.73722 24.745 3.82453 24.745 3.91519C24.745 4.19724 24.6875 4.29126 24.4274 4.42893C24.4341 4.47258 24.4375 4.51959 24.451 4.5666C24.6571 5.39262 24.8666 6.21527 25.0693 7.04129C25.0963 7.1521 25.1369 7.20582 25.2585 7.23269C26.2789 7.4543 26.9985 8.34747 26.9985 9.38839C27.0019 10.8658 26.9985 12.3432 26.9985 13.8207C26.9985 14.1397 26.8329 14.3042 26.5086 14.3042C26.137 14.3076 25.7653 14.3042 25.3937 14.3042C25.3328 14.3042 25.272 14.3042 25.2112 14.3042C25.1909 15.9629 23.8057 16.9804 22.5489 17.0005C21.4137 17.0173 19.8831 16.1476 19.8156 14.3143C16.6532 14.3143 13.4942 14.3143 10.3183 14.3143C10.2946 15.1705 9.96691 15.8824 9.29457 16.4196C8.79453 16.8192 8.21341 17.0072 7.57147 16.9938C7.09847 16.9837 6.66263 16.8561 6.25719 16.6144C5.85514 16.3726 5.53755 16.0469 5.30104 15.6372C5.06792 15.2309 4.96318 14.7877 4.94967 14.3042C4.87534 14.3042 4.8179 14.3042 4.75709 14.3042C4.0915 14.3042 3.42929 14.3042 2.76371 14.3042C2.15556 14.3042 1.79742 13.9483 1.79742 13.3439C1.79742 13.0719 1.79742 12.7999 1.79742 12.5078ZM19.7953 7.16553C21.2751 7.16553 22.7414 7.16553 24.2179 7.16553C24.2111 7.11852 24.2078 7.0883 24.201 7.05808C23.9915 6.22199 23.7787 5.38926 23.576 4.55317C23.5456 4.42557 23.4712 4.43229 23.38 4.43229C22.238 4.43229 21.0961 4.43229 19.9541 4.43229C19.9034 4.43229 19.8561 4.439 19.7987 4.44236C19.7953 5.35232 19.7953 6.24885 19.7953 7.16553ZM24.3463 14.3311C24.3463 13.3304 23.5287 12.5145 22.5252 12.5111C21.515 12.5078 20.6872 13.3271 20.6872 14.3344C20.6872 15.3384 21.515 16.1611 22.5286 16.1543C23.5287 16.1476 24.3463 15.3317 24.3463 14.3311ZM5.80784 14.321C5.80446 15.3317 6.62208 16.151 7.63567 16.151C8.63911 16.151 9.4635 15.335 9.46688 14.3378C9.47025 13.3338 8.65939 12.5179 7.65594 12.5078C6.63898 12.4977 5.81121 13.3136 5.80784 14.321ZM19.7953 3.57941C21.1636 3.57941 22.5218 3.57941 23.8969 3.57941C23.8868 3.49546 23.8868 3.42159 23.8699 3.35444C23.7618 2.91121 23.4037 2.63923 22.9138 2.63587C21.9137 2.63251 20.9102 2.63587 19.9102 2.63587C19.873 2.63587 19.8358 2.64594 19.7953 2.6493C19.7953 2.96157 19.7953 3.26713 19.7953 3.57941ZM26.1437 9.81483C25.8498 9.81483 25.5727 9.81147 25.2991 9.81819C25.2653 9.81819 25.2045 9.86855 25.2011 9.89542C25.1943 10.0633 25.1876 10.2312 25.2112 10.3957C25.2382 10.5737 25.3599 10.7114 25.5389 10.7382C25.7349 10.7651 25.9342 10.7449 26.1505 10.7449C26.1505 10.4864 26.1505 10.2346 26.1505 9.98608C26.1538 9.93907 26.1471 9.8887 26.1437 9.81483Z" fill="#426492"/>
<path d="M10.3387 7.90072C10.7847 7.45749 11.2138 7.03105 11.6428 6.60461C12.4469 5.80545 13.2477 5.0063 14.0518 4.20714C14.2613 3.99896 14.5113 3.97881 14.6937 4.15342C14.8829 4.33474 14.866 4.58657 14.6498 4.80483C13.3321 6.11773 12.0111 7.43398 10.6901 8.74688C10.4536 8.98193 10.2238 8.97857 9.98732 8.74688C9.27781 8.04174 8.57168 7.33996 7.86555 6.63483C7.84528 6.61468 7.82501 6.59453 7.80811 6.57439C7.62567 6.38299 7.61891 6.1278 7.78784 5.95991C7.96015 5.78866 8.21355 5.79202 8.40613 5.9767C8.8048 6.36956 9.20348 6.76578 9.59878 7.162C9.83866 7.4004 10.0819 7.64217 10.3387 7.90072Z" fill="#426492"/>
<path d="M14.3993 12.508C13.3958 12.508 12.3957 12.508 11.3923 12.508C11.3247 12.508 11.2571 12.5114 11.1896 12.5013C10.9835 12.4778 10.8281 12.3066 10.8179 12.1051C10.8078 11.9103 10.9396 11.729 11.1355 11.682C11.2065 11.6652 11.2808 11.6619 11.3517 11.6619C13.3857 11.6619 15.4162 11.6619 17.4501 11.6619C17.5211 11.6619 17.5988 11.6652 17.6664 11.682C17.8623 11.729 17.9873 11.907 17.9772 12.1085C17.9671 12.3066 17.8218 12.4711 17.6225 12.498C17.5549 12.508 17.4873 12.508 17.4197 12.508C16.4129 12.508 15.4061 12.508 14.3993 12.508Z" fill="#426492"/>
<path d="M4.0274 10.7148C3.13883 10.7148 2.25025 10.7148 1.36168 10.7148C1.05084 10.7148 0.854883 10.4831 0.91232 10.2044C0.949484 10.0298 1.09476 9.8955 1.27383 9.87871C1.32451 9.87199 1.37519 9.87535 1.42587 9.87535C3.16248 9.87535 4.90246 9.87535 6.63907 9.87535C6.71678 9.87535 6.79786 9.87535 6.87219 9.89886C7.0614 9.95594 7.18303 10.154 7.156 10.3421C7.12559 10.5536 6.96679 10.7081 6.74381 10.7148C6.53433 10.7215 6.32824 10.7182 6.11876 10.7182C5.41939 10.7148 4.7234 10.7148 4.0274 10.7148Z" fill="#426492"/>
<path d="M23.3903 14.3244C23.3937 14.8079 23.0018 15.2008 22.5153 15.1974C22.0355 15.1974 21.647 14.8113 21.6436 14.3345C21.6402 13.8577 22.0254 13.4682 22.5051 13.4614C22.995 13.4581 23.3869 13.8375 23.3903 14.3244Z" fill="#426492"/>
<path d="M7.63882 13.4614C8.11858 13.4614 8.50712 13.8476 8.51388 14.3244C8.52064 14.8045 8.12196 15.2008 7.63544 15.2008C7.15568 15.2008 6.76714 14.8146 6.76376 14.3378C6.757 13.8509 7.14892 13.4614 7.63882 13.4614Z" fill="#426492"/>
</svg>
