<svg width="14" height="14" viewBox="0 0 14 14" fill="none" xmlns="http://www.w3.org/2000/svg">
<path d="M6.98842 3.20242e-05C10.8386 -0.0115766 13.9923 3.13435 14 6.99615C14.0039 10.8502 10.8579 14 7.00003 14C3.15372 14 0.015535 10.8695 5.68711e-05 7.01549C-0.0154212 3.16531 3.1305 0.0116406 6.98842 3.20242e-05ZM7.58046 7.58045C7.58046 7.0271 7.58046 6.50085 7.58046 5.97459C7.58046 4.58156 7.58046 3.18853 7.58046 1.79936C7.58046 1.50528 7.42954 1.28472 7.18189 1.19959C6.79494 1.06802 6.4196 1.35824 6.4196 1.79163C6.4196 3.25431 6.4196 4.71699 6.4196 6.17968C6.4196 6.2532 6.4196 6.32672 6.4196 6.41572C6.32286 6.41572 6.25321 6.41572 6.17969 6.41572C5.1117 6.41572 4.03984 6.41572 2.97185 6.41572C2.59651 6.41572 2.34112 6.65563 2.34112 6.99615C2.34112 7.34054 2.59651 7.57271 2.97572 7.57658C3.90441 7.58045 4.83309 7.57658 5.76178 7.57658C6.35769 7.58045 6.95746 7.58045 7.58046 7.58045Z" fill="#426492"/>
</svg>
